<svg width="40" height="40" viewBox="0 0 40 40" fill="none" xmlns="http://www.w3.org/2000/svg">
<rect width="40" height="40" rx="20" fill="#16A34A"/>
<g clip-path="url(#clip0_59_101)">
<path d="M29.82 23.42L27.32 27.75C26.83 28.61 25.92 29.06 25 29H23V31L20.5 26.5L23 22V24H25.82L23.6 20.15L27.93 17.65L29.73 20.77C30.25 21.54 30.32 22.57 29.82 23.42ZM17.21 11.06H22.21C23.19 11.06 24.04 11.63 24.45 12.45L25.45 14.19L27.18 13.19L24.54 17.6L19.39 17.69L21.12 16.69L19.71 14.24L17.5 18.09L13.16 15.59L14.96 12.47C15.37 11.64 16.22 11.06 17.21 11.06ZM13.05 27.76L10.55 23.43C10.06 22.58 10.13 21.56 10.64 20.79L11.64 19.06L9.90997 18.06L15.05 18.14L17.7 22.56L15.97 21.56L14.56 24H19V29H15.4C14.9315 29.0339 14.4629 28.9357 14.0474 28.7165C13.632 28.4973 13.2864 28.1659 13.05 27.76Z" fill="black"/>
<path d="M29.82 23.42L27.32 27.75C26.83 28.61 25.92 29.06 25 29H23V31L20.5 26.5L23 22V24H25.82L23.6 20.15L27.93 17.65L29.73 20.77C30.25 21.54 30.32 22.57 29.82 23.42ZM17.21 11.06H22.21C23.19 11.06 24.04 11.63 24.45 12.45L25.45 14.19L27.18 13.19L24.54 17.6L19.39 17.69L21.12 16.69L19.71 14.24L17.5 18.09L13.16 15.59L14.96 12.47C15.37 11.64 16.22 11.06 17.21 11.06ZM13.05 27.76L10.55 23.43C10.06 22.58 10.13 21.56 10.64 20.79L11.64 19.06L9.90997 18.06L15.05 18.14L17.7 22.56L15.97 21.56L14.56 24H19V29H15.4C14.9315 29.0339 14.4629 28.9357 14.0474 28.7165C13.632 28.4973 13.2864 28.1659 13.05 27.76Z" fill="#DCFCE7"/>
</g>
<defs>
<clipPath id="clip0_59_101">
<rect width="24" height="24" fill="white" transform="translate(8 8)"/>
</clipPath>
</defs>
</svg>
