<svg width="40" height="40" viewBox="0 0 40 40" fill="none" xmlns="http://www.w3.org/2000/svg">
<rect width="40" height="40" rx="20" fill="#DCFCE7"/>
<path d="M28 16H12C11.4477 16 11 16.4477 11 17V19C11 19.5523 11.4477 20 12 20H28C28.5523 20 29 19.5523 29 19V17C29 16.4477 28.5523 16 28 16Z" stroke="#16A34A" stroke-width="2" stroke-linecap="round" stroke-linejoin="round"/>
<path d="M20 16V29" stroke="#16A34A" stroke-width="2" stroke-linecap="round" stroke-linejoin="round"/>
<path d="M27 20V27C27 27.5304 26.7893 28.0391 26.4142 28.4142C26.0391 28.7893 25.5304 29 25 29H15C14.4696 29 13.9609 28.7893 13.5858 28.4142C13.2107 28.0391 13 27.5304 13 27V20" stroke="#16A34A" stroke-width="2" stroke-linecap="round" stroke-linejoin="round"/>
<path d="M15.5 16C14.837 16 14.2011 15.7366 13.7322 15.2678C13.2634 14.7989 13 14.1631 13 13.5C13 12.837 13.2634 12.2011 13.7322 11.7322C14.2011 11.2634 14.837 11 15.5 11C16.4647 10.9832 17.41 11.4513 18.2127 12.3432C19.0154 13.2351 19.6383 14.5094 20 16C20.3617 14.5094 20.9846 13.2351 21.7873 12.3432C22.59 11.4513 23.5353 10.9832 24.5 11C25.163 11 25.7989 11.2634 26.2678 11.7322C26.7366 12.2011 27 12.837 27 13.5C27 14.1631 26.7366 14.7989 26.2678 15.2678C25.7989 15.7366 25.163 16 24.5 16" stroke="#16A34A" stroke-width="2" stroke-linecap="round" stroke-linejoin="round"/>
</svg>
