<svg width="36" height="36" viewBox="0 0 36 36" fill="none" xmlns="http://www.w3.org/2000/svg">
<path d="M10.5 28.5H7.22252C6.74937 28.5014 6.2839 28.3804 5.87128 28.1489C5.45865 27.9173 5.11288 27.5831 4.86752 27.1785C4.63188 26.7722 4.50729 26.311 4.50623 25.8413C4.50518 25.3716 4.62771 24.9099 4.86152 24.5025L10.794 14.25" stroke="#16A34A" stroke-width="3" stroke-linecap="round" stroke-linejoin="round"/>
<path d="M16.5 28.5H28.8045C29.2754 28.4964 29.7374 28.3716 30.1461 28.1378C30.5549 27.904 30.8966 27.569 31.1385 27.165C31.3709 26.7598 31.4931 26.3008 31.4931 25.8337C31.4931 25.3666 31.3709 24.9077 31.1385 24.5025L29.2995 21.3225" stroke="#16A34A" stroke-width="3" stroke-linecap="round" stroke-linejoin="round"/>
<path d="M21 24L16.5 28.5L21 33" stroke="#16A34A" stroke-width="3" stroke-linecap="round" stroke-linejoin="round"/>
<path d="M12.4395 20.394L10.794 14.25L4.65002 15.897" stroke="#16A34A" stroke-width="3" stroke-linecap="round" stroke-linejoin="round"/>
<path d="M14.016 8.7165L15.6555 5.8785C15.8909 5.46809 16.2284 5.12551 16.6353 4.88398C17.0421 4.64245 17.5045 4.51018 17.9775 4.5C18.4469 4.49912 18.9083 4.62174 19.3153 4.85554C19.7224 5.08933 20.0607 5.42609 20.2965 5.832L26.211 16.0965" stroke="#16A34A" stroke-width="3" stroke-linecap="round" stroke-linejoin="round"/>
<path d="M20.067 14.4495L26.211 16.0965L27.8565 9.9525" stroke="#16A34A" stroke-width="3" stroke-linecap="round" stroke-linejoin="round"/>
</svg>
