<svg width="54" height="54" viewBox="0 0 54 54" fill="none" xmlns="http://www.w3.org/2000/svg">
<rect width="53.5814" height="53.5814" rx="26.7907" fill="#DCFCE7"/>
<path d="M34.9535 23.0233H19.0465C18.4974 23.0233 18.0523 23.4684 18.0523 24.0175V26.0058C18.0523 26.5549 18.4974 27 19.0465 27H34.9535C35.5025 27 35.9477 26.5549 35.9477 26.0058V24.0175C35.9477 23.4684 35.5025 23.0233 34.9535 23.0233Z" stroke="#16A34A" stroke-width="1.98837" stroke-linecap="round" stroke-linejoin="round"/>
<path d="M27 23.0233V35.9477" stroke="#16A34A" stroke-width="1.98837" stroke-linecap="round" stroke-linejoin="round"/>
<path d="M33.9593 27V33.9593C33.9593 34.4867 33.7498 34.9924 33.3769 35.3653C33.004 35.7382 32.4983 35.9477 31.9709 35.9477H22.0291C21.5017 35.9477 20.996 35.7382 20.6231 35.3653C20.2502 34.9924 20.0407 34.4867 20.0407 33.9593V27" stroke="#16A34A" stroke-width="1.98837" stroke-linecap="round" stroke-linejoin="round"/>
<path d="M22.5262 23.0233C21.867 23.0233 21.2348 22.7614 20.7687 22.2953C20.3026 21.8292 20.0407 21.197 20.0407 20.5378C20.0407 19.8786 20.3026 19.2464 20.7687 18.7803C21.2348 18.3142 21.867 18.0523 22.5262 18.0523C23.4853 18.0356 24.4251 18.501 25.2231 19.3877C26.0212 20.2744 26.6404 21.5413 27 23.0233C27.3596 21.5413 27.9788 20.2744 28.7769 19.3877C29.5749 18.501 30.5148 18.0356 31.4738 18.0523C32.133 18.0523 32.7652 18.3142 33.2313 18.7803C33.6975 19.2464 33.9593 19.8786 33.9593 20.5378C33.9593 21.197 33.6975 21.8292 33.2313 22.2953C32.7652 22.7614 32.133 23.0233 31.4738 23.0233" stroke="#16A34A" stroke-width="1.98837" stroke-linecap="round" stroke-linejoin="round"/>
</svg>
