<svg width="245" height="43" viewBox="0 0 245 43" fill="none" xmlns="http://www.w3.org/2000/svg">
<path d="M10.5 32H7.22252C6.74937 32.0014 6.2839 31.8804 5.87128 31.6489C5.45865 31.4173 5.11288 31.0831 4.86752 30.6785C4.63188 30.2722 4.50729 29.811 4.50623 29.3413C4.50518 28.8716 4.62771 28.4099 4.86152 28.0025L10.794 17.75" stroke="#16A34A" stroke-width="3" stroke-linecap="round" stroke-linejoin="round"/>
<path d="M16.5 32H28.8045C29.2754 31.9964 29.7374 31.8716 30.1461 31.6378C30.5549 31.404 30.8966 31.069 31.1385 30.665C31.3709 30.2598 31.4931 29.8008 31.4931 29.3337C31.4931 28.8666 31.3709 28.4077 31.1385 28.0025L29.2995 24.8225" stroke="#16A34A" stroke-width="3" stroke-linecap="round" stroke-linejoin="round"/>
<path d="M21 27.5L16.5 32L21 36.5" stroke="#16A34A" stroke-width="3" stroke-linecap="round" stroke-linejoin="round"/>
<path d="M12.4395 23.894L10.794 17.75L4.65002 19.397" stroke="#16A34A" stroke-width="3" stroke-linecap="round" stroke-linejoin="round"/>
<path d="M14.016 12.2165L15.6555 9.3785C15.8909 8.96809 16.2284 8.62551 16.6353 8.38398C17.0421 8.14245 17.5045 8.01018 17.9775 8C18.4469 7.99912 18.9083 8.12174 19.3153 8.35554C19.7224 8.58933 20.0607 8.92609 20.2965 9.332L26.211 19.5965" stroke="#16A34A" stroke-width="3" stroke-linecap="round" stroke-linejoin="round"/>
<path d="M20.067 17.9495L26.211 19.5965L27.8565 13.4525" stroke="#16A34A" stroke-width="3" stroke-linecap="round" stroke-linejoin="round"/>
<path d="M59.3392 32L54.7022 23.5836H53.4001V32H47.9691V9.70448H57.0842C58.8416 9.70448 60.3343 10.0115 61.5624 10.6255C62.8116 11.2395 63.7433 12.0865 64.3573 13.1663C64.9713 14.225 65.2783 15.4107 65.2783 16.7234C65.2783 18.2056 64.8549 19.5289 64.0079 20.6934C63.1822 21.858 61.9541 22.6837 60.3238 23.1707L65.4689 32H59.3392ZM53.4001 19.7406H56.7666C57.7618 19.7406 58.5029 19.4971 58.9898 19.0102C59.498 18.5232 59.7521 17.835 59.7521 16.9458C59.7521 16.0988 59.498 15.4319 58.9898 14.9449C58.5029 14.4579 57.7618 14.2144 56.7666 14.2144H53.4001V19.7406ZM85.3933 22.8531C85.3933 23.3613 85.3616 23.8906 85.298 24.4411H73.0069C73.0916 25.5421 73.441 26.3891 74.055 26.9819C74.6902 27.5536 75.463 27.8394 76.3735 27.8394C77.7286 27.8394 78.6708 27.2678 79.2001 26.1244H84.9804C84.684 27.2889 84.1441 28.337 83.3607 29.2686C82.5984 30.2003 81.6351 30.9307 80.4705 31.4601C79.306 31.9894 78.0038 32.2541 76.564 32.2541C74.8278 32.2541 73.2822 31.8835 71.9271 31.1425C70.572 30.4014 69.5133 29.3427 68.7511 27.9665C67.9888 26.5902 67.6077 24.981 67.6077 23.139C67.6077 21.2969 67.9783 19.6877 68.7193 18.3114C69.4816 16.9352 70.5402 15.8765 71.8953 15.1354C73.2504 14.3944 74.8067 14.0238 76.564 14.0238C78.2791 14.0238 79.8036 14.3838 81.1375 15.1037C82.4714 15.8236 83.5089 16.8505 84.25 18.1844C85.0122 19.5183 85.3933 21.0746 85.3933 22.8531ZM79.8353 21.4239C79.8353 20.4923 79.5177 19.7512 78.8825 19.2007C78.2473 18.6502 77.4533 18.375 76.5005 18.375C75.5901 18.375 74.8172 18.6396 74.182 19.169C73.568 19.6983 73.1869 20.4499 73.0387 21.4239H79.8353ZM87.1786 23.139C87.1786 21.2969 87.5491 19.6877 88.2902 18.3114C89.0524 16.9352 90.1005 15.8765 91.4344 15.1354C92.7895 14.3944 94.3352 14.0238 96.0714 14.0238C98.2946 14.0238 100.147 14.6061 101.629 15.7706C103.133 16.9352 104.117 18.5761 104.583 20.6934H98.8027C98.3158 19.3383 97.3735 18.6608 95.9761 18.6608C94.981 18.6608 94.187 19.0525 93.5941 19.8359C93.0012 20.5982 92.7048 21.6992 92.7048 23.139C92.7048 24.5787 93.0012 25.6903 93.5941 26.4738C94.187 27.236 94.981 27.6171 95.9761 27.6171C97.3735 27.6171 98.3158 26.9396 98.8027 25.5845H104.583C104.117 27.6595 103.133 29.2898 101.629 30.4755C100.126 31.6612 98.2734 32.2541 96.0714 32.2541C94.3352 32.2541 92.7895 31.8835 91.4344 31.1425C90.1005 30.4014 89.0524 29.3427 88.2902 27.9665C87.5491 26.5902 87.1786 24.981 87.1786 23.139ZM110.219 12.4358C109.267 12.4358 108.483 12.1606 107.869 11.6101C107.276 11.0384 106.98 10.3397 106.98 9.51392C106.98 8.66699 107.276 7.96827 107.869 7.41776C108.483 6.84608 109.267 6.56024 110.219 6.56024C111.151 6.56024 111.913 6.84608 112.506 7.41776C113.12 7.96827 113.427 8.66699 113.427 9.51392C113.427 10.3397 113.12 11.0384 112.506 11.6101C111.913 12.1606 111.151 12.4358 110.219 12.4358ZM112.919 14.2779V32H107.488V14.2779H112.919ZM115.775 23.139C115.775 21.2969 116.146 19.6877 116.887 18.3114C117.649 16.9352 118.697 15.8765 120.031 15.1354C121.386 14.3944 122.932 14.0238 124.668 14.0238C126.891 14.0238 128.744 14.6061 130.226 15.7706C131.729 16.9352 132.714 18.5761 133.179 20.6934H127.399C126.912 19.3383 125.97 18.6608 124.573 18.6608C123.577 18.6608 122.783 19.0525 122.191 19.8359C121.598 20.5982 121.301 21.6992 121.301 23.139C121.301 24.5787 121.598 25.6903 122.191 26.4738C122.783 27.236 123.577 27.6171 124.573 27.6171C125.97 27.6171 126.912 26.9396 127.399 25.5845H133.179C132.714 27.6595 131.729 29.2898 130.226 30.4755C128.722 31.6612 126.87 32.2541 124.668 32.2541C122.932 32.2541 121.386 31.8835 120.031 31.1425C118.697 30.4014 117.649 29.3427 116.887 27.9665C116.146 26.5902 115.775 24.981 115.775 23.139ZM141.515 8.4976V32H136.085V8.4976H141.515ZM144.371 23.1072C144.371 21.2863 144.71 19.6877 145.388 18.3114C146.086 16.9352 147.029 15.8765 148.214 15.1354C149.4 14.3944 150.723 14.0238 152.184 14.0238C153.434 14.0238 154.524 14.2779 155.456 14.7861C156.408 15.2942 157.139 15.9612 157.647 16.787V14.2779H163.078V32H157.647V29.491C157.118 30.3167 156.377 30.9837 155.424 31.4918C154.492 32 153.402 32.2541 152.153 32.2541C150.713 32.2541 149.4 31.8835 148.214 31.1425C147.029 30.3802 146.086 29.311 145.388 27.9347C144.71 26.5373 144.371 24.9281 144.371 23.1072ZM157.647 23.139C157.647 21.7839 157.266 20.7146 156.504 19.9312C155.763 19.1478 154.852 18.7561 153.772 18.7561C152.693 18.7561 151.771 19.1478 151.009 19.9312C150.268 20.6934 149.898 21.7521 149.898 23.1072C149.898 24.4623 150.268 25.5421 151.009 26.3467C151.771 27.1301 152.693 27.5218 153.772 27.5218C154.852 27.5218 155.763 27.1301 156.504 26.3467C157.266 25.5633 157.647 24.4941 157.647 23.139ZM183.046 9.70448V14.0556H177.139V32H171.708V14.0556H165.8V9.70448H183.046ZM202.477 22.8531C202.477 23.3613 202.446 23.8906 202.382 24.4411H190.091C190.176 25.5421 190.525 26.3891 191.139 26.9819C191.774 27.5536 192.547 27.8394 193.457 27.8394C194.813 27.8394 195.755 27.2678 196.284 26.1244H202.064C201.768 27.2889 201.228 28.337 200.445 29.2686C199.682 30.2003 198.719 30.9307 197.555 31.4601C196.39 31.9894 195.088 32.2541 193.648 32.2541C191.912 32.2541 190.366 31.8835 189.011 31.1425C187.656 30.4014 186.597 29.3427 185.835 27.9665C185.073 26.5902 184.692 24.981 184.692 23.139C184.692 21.2969 185.062 19.6877 185.803 18.3114C186.566 16.9352 187.624 15.8765 188.979 15.1354C190.334 14.3944 191.891 14.0238 193.648 14.0238C195.363 14.0238 196.888 14.3838 198.221 15.1037C199.555 15.8236 200.593 16.8505 201.334 18.1844C202.096 19.5183 202.477 21.0746 202.477 22.8531ZM196.919 21.4239C196.919 20.4923 196.602 19.7512 195.967 19.2007C195.331 18.6502 194.537 18.375 193.585 18.375C192.674 18.375 191.901 18.6396 191.266 19.169C190.652 19.6983 190.271 20.4499 190.123 21.4239H196.919ZM204.263 23.139C204.263 21.2969 204.633 19.6877 205.374 18.3114C206.136 16.9352 207.184 15.8765 208.518 15.1354C209.873 14.3944 211.419 14.0238 213.155 14.0238C215.379 14.0238 217.231 14.6061 218.713 15.7706C220.217 16.9352 221.201 18.5761 221.667 20.6934H215.887C215.4 19.3383 214.458 18.6608 213.06 18.6608C212.065 18.6608 211.271 19.0525 210.678 19.8359C210.085 20.5982 209.789 21.6992 209.789 23.139C209.789 24.5787 210.085 25.6903 210.678 26.4738C211.271 27.236 212.065 27.6171 213.06 27.6171C214.458 27.6171 215.4 26.9396 215.887 25.5845H221.667C221.201 27.6595 220.217 29.2898 218.713 30.4755C217.21 31.6612 215.357 32.2541 213.155 32.2541C211.419 32.2541 209.873 31.8835 208.518 31.1425C207.184 30.4014 206.136 29.3427 205.374 27.9665C204.633 26.5902 204.263 24.981 204.263 23.139ZM235.466 14.0874C237.498 14.0874 239.129 14.7649 240.357 16.12C241.585 17.4539 242.199 19.296 242.199 21.6462V32H236.8V22.3767C236.8 21.191 236.493 20.27 235.879 19.6136C235.265 18.9572 234.439 18.629 233.401 18.629C232.364 18.629 231.538 18.9572 230.924 19.6136C230.31 20.27 230.003 21.191 230.003 22.3767V32H224.572V8.4976H230.003V16.6599C230.554 15.8765 231.305 15.2519 232.258 14.7861C233.211 14.3203 234.28 14.0874 235.466 14.0874Z" fill="#1F2937"/>
</svg>
